<svg width="167" height="60" viewBox="0 0 167 60" fill="none" xmlns="http://www.w3.org/2000/svg">
<path d="M116.062 50.8552C115.559 48.4088 115.52 45.844 115.145 43.368C113.813 43.2201 113.35 43.0129 113.35 43.0129C109.384 41.5628 107.569 44.9464 104.235 43.5555L104.195 44.0881C108.24 51.2202 109.887 54.9884 118.075 57.9675C117.424 55.7874 116.506 53.0155 116.062 50.8453V50.8552Z" fill="#CACDD3"/>
<path d="M153.573 13.7648C156.651 9.25676 159.087 4.19628 163.329 0.615467C164.463 0.4675 166.278 -0.252608 166.338 0.0926494C162.471 6.39605 163.408 10.48 155.28 13.9818L153.504 14.2087C153.524 14.0608 153.543 13.9128 153.563 13.7648H153.573Z" fill="#CACDD3"/>
<path d="M153.584 12.8773C153.486 10.5197 153.584 8.15219 153.348 5.80444C156.692 1.55285 158.073 1.30624 162.887 0.615723C159.858 3.00293 154.571 9.44444 153.584 12.8773Z" fill="#CACDD3"/>
<path d="M153.576 13.765C153.576 13.7157 153.24 14.0708 153.586 12.8772C154.572 9.44439 159.86 3.00288 162.888 0.615671C163.213 0.566349 163.312 0.615671 163.332 0.615671C159.09 4.19648 156.654 9.25696 153.576 13.765Z" fill="#CACDD3"/>
<path d="M106.279 22.1495H101.455C100.883 22.1495 100.4 21.8338 100.133 21.38C100.133 21.5773 100.163 21.7746 100.163 21.9818C100.163 29.2815 95.5266 35.4862 89.0456 37.8636V38.1891C89.0456 38.5837 88.7299 38.8994 88.3354 38.8994H83.5116C83.4228 38.8994 83.3341 38.9092 83.2453 38.9092C83.1565 38.9092 83.0677 38.8994 82.9789 38.8994H67.0379C66.6434 38.8994 66.3277 38.5837 66.3277 38.1891V22.1297C66.3277 22.1297 66.3277 22.041 66.3277 21.9916C66.3277 21.9423 66.3277 21.9029 66.3277 21.8535V8.03339C66.3277 7.18504 65.6372 6.50439 64.7987 6.50439H56.986C56.1377 6.50439 55.457 7.19491 55.457 8.03339V41.5332C55.457 45.8933 58.2092 48.823 62.8061 48.823H84.5178C84.7743 48.823 85.0012 48.6849 85.1294 48.4679L89.0456 41.7107V58.8749C89.0456 59.2695 89.3613 59.5852 89.7558 59.5852H99.2159C99.6105 59.5852 99.9261 59.2695 99.9261 58.8749V33.5528C99.9261 32.7045 100.617 32.0238 101.455 32.0238H106.279C107.127 32.0238 107.808 31.3333 107.808 30.4948V23.6982C107.808 22.8498 107.117 22.1692 106.279 22.1692V22.1495Z" fill="#CACDD3"/>
<path d="M100.136 21.3704C100.008 21.1435 99.9293 20.887 99.9293 20.6108V5.62665C99.9293 4.77831 99.2387 4.09766 98.4003 4.09766H90.5876C89.7392 4.09766 89.0586 4.78817 89.0586 5.62665V37.8539C95.5396 35.4864 100.176 29.2817 100.176 21.9721C100.176 21.7649 100.156 21.5677 100.146 21.3704H100.136Z" fill="#CACDD3"/>
<path d="M83.2371 38.8995C83.3259 38.8995 83.4147 38.8896 83.5035 38.8896H82.9609C83.0497 38.8896 83.1385 38.8995 83.2273 38.8995H83.2371Z" fill="#CACDD3"/>
<path d="M17.2135 29.173V40.1423H10.2788V16.0533H15.7733V7.55009C15.7733 7.15551 15.4576 6.83984 15.0631 6.83984H0.710243C0.315664 6.83984 0 7.15551 0 7.55009V43.2497C0 47.0179 1.79534 49.3459 5.80032 49.3459H13.6623C13.9287 49.3459 14.1851 49.1881 14.3035 48.9513L17.2135 42.9537V43.2497C17.2135 47.0179 19.0089 49.3459 23.0138 49.3459H33.1743C33.4307 49.3459 33.6773 49.2078 33.7957 48.9711L33.8549 48.8527C24.6415 46.8601 17.6772 38.8698 17.2135 29.1632V29.173Z" fill="#CACDD3"/>
<path d="M49.503 5.62665C49.503 4.77831 48.8125 4.09766 47.974 4.09766H40.9899C40.1416 4.09766 39.4609 4.78817 39.4609 5.62665V6.99781C43.1404 7.18524 46.5535 8.29993 49.503 10.1249V5.62665Z" fill="#CACDD3"/>
<path d="M39.4609 58.855C39.4609 59.2495 39.7766 59.5652 40.1712 59.5652H48.8026C49.1972 59.5652 49.5128 59.2495 49.5128 58.855V22.1196C47.1848 38.8893 43.1404 49.1089 39.4708 49.2963V58.8648L39.4609 58.855Z" fill="#CACDD3"/>
<path d="M37.3758 40.1423H27.9749C27.5804 40.1423 27.2647 39.8267 27.2647 39.4321V17.5823C27.2647 16.7339 27.9552 16.0533 28.7937 16.0533H33.9232C34.7716 16.0533 35.4522 15.3628 35.4522 14.5243V8.3787C35.4522 7.92494 35.2549 7.53036 34.9491 7.24429C34.6729 6.99768 34.3178 6.83984 33.9232 6.83984H17.9329C17.5383 6.83984 17.2227 7.15551 17.2227 7.55009V29.173C17.6863 38.8698 24.6506 46.8601 33.864 48.8625L37.9973 41.188C38.2537 40.7145 37.9085 40.1423 37.3758 40.1423Z" fill="#CACDD3"/>
<path d="M39.4548 6.99805V21.2128C39.4548 22.0611 38.7642 22.7418 37.9258 22.7418H33.2204C32.3721 22.7418 31.6914 23.4323 31.6914 24.2708V30.5939C31.6914 31.4422 32.3819 32.1229 33.2204 32.1229H37.9258C38.7741 32.1229 39.4548 32.8134 39.4548 33.6519V49.2772C43.1342 49.0898 46.5473 47.9751 49.4968 46.1502V10.1251C46.5473 8.30016 43.1243 7.18547 39.4548 6.99805Z" fill="#CACDD3"/>
<path d="M156.143 59.2795V56.3892C156.143 57.5926 156.004 58.7665 155.758 59.8911C155.985 59.7727 156.143 59.5458 156.143 59.2696V59.2795Z" fill="#CACDD3"/>
<path d="M155.449 39.8467H115.675C115.281 39.8467 114.965 40.1623 114.965 40.5569V54.4954C114.965 57.6619 116.642 59.9998 120.163 59.9998H123.458C123.202 58.8457 123.054 57.6422 123.054 56.3993C123.054 47.2549 130.462 39.8467 139.606 39.8467C148.751 39.8467 156.159 47.2549 156.159 56.3993V40.5569C156.159 40.1623 155.843 39.8467 155.449 39.8467Z" fill="#CACDD3"/>
<path d="M160.645 29.1432H141.971C141.547 29.1432 141.212 28.8276 141.162 28.4133C141.162 28.3837 141.143 28.3541 141.143 28.3146V27.0322C141.143 26.5785 141.508 26.2036 141.971 26.2036H154.44C155.288 26.2036 155.969 25.5131 155.969 24.6746V5.3205C155.969 4.47215 155.278 3.7915 154.44 3.7915H145.917C145.463 3.7915 145.108 4.15649 145.098 4.60039C145.098 4.61026 145.098 4.62012 145.098 4.62999C145.098 4.67931 145.098 4.72863 145.098 4.78782V6.62261C145.098 6.77058 145.049 6.89882 144.99 7.01719C144.714 9.92721 143.924 12.6893 142.721 15.2244H144.279C144.733 15.2244 145.108 15.5894 145.108 16.0531V17.3946C145.108 17.8484 144.743 18.2232 144.279 18.2232H141.034C138.39 22.2184 134.612 25.3947 130.163 27.3084V28.3442C130.163 28.798 129.798 29.1728 129.335 29.1728H122.864C122.084 29.2517 121.285 29.2912 120.486 29.2912C119.687 29.2912 118.888 29.2517 118.109 29.1728H111.49C110.642 29.1728 109.961 29.8633 109.961 30.7018V36.5909C109.961 36.9855 110.277 37.3012 110.671 37.3012H160.664C161.059 37.3012 161.375 36.9855 161.375 36.5909V29.8831C161.375 29.4885 161.059 29.1728 160.664 29.1728L160.645 29.1432Z" fill="#CACDD3"/>
<path d="M144.27 7.44195H126.85C126.396 7.44195 126.021 7.07696 126.021 6.61333V4.61084C126.021 4.15708 125.656 3.78223 125.193 3.78223H116.67C115.821 3.78223 115.141 4.47274 115.141 5.31122V20.6998C115.141 23.8663 116.818 26.1943 120.339 26.1943H129.316C129.77 26.1943 130.144 26.5593 130.144 27.023V27.2696C134.593 25.3657 138.371 22.1894 141.015 18.1844H126.84C126.386 18.1844 126.011 17.8194 126.011 17.3558V16.0142C126.011 15.5604 126.376 15.1856 126.84 15.1856H142.702C143.905 12.6603 144.695 9.89821 144.971 6.97832C144.833 7.2348 144.566 7.41236 144.261 7.41236L144.27 7.44195Z" fill="#CACDD3"/>
<path d="M120.465 29.2619C121.264 29.2619 122.063 29.2225 122.843 29.1436H118.078C118.857 29.2225 119.656 29.2619 120.455 29.2619H120.465Z" fill="#CACDD3"/>
<path d="M139.599 39.8467C130.455 39.8467 123.047 47.2549 123.047 56.3993C123.047 57.6323 123.195 58.8358 123.451 59.9998H141.316C141.572 59.9998 141.819 59.8617 141.937 59.625L145.143 53.7161V59.99H155.432C155.55 59.99 155.659 59.9505 155.758 59.9012C156.004 58.7668 156.142 57.6028 156.142 56.3993C156.142 47.2549 148.734 39.8467 139.59 39.8467H139.599ZM145.143 51.615H125.957V47.9651H145.143V51.615Z" fill="#CACDD3"/>
</svg>
