<svg width="111" height="40" viewBox="0 0 111 40" fill="none" xmlns="http://www.w3.org/2000/svg">
<path d="M77.3936 33.9112C77.0582 32.2799 77.0319 30.5697 76.7819 28.9186C75.8939 28.82 75.5847 28.6818 75.5847 28.6818C72.9404 27.7149 71.7301 29.9711 69.5068 29.0436L69.4805 29.3988C72.1774 34.1546 73.2759 36.6674 78.7355 38.6539C78.3014 37.2002 77.6896 35.3518 77.3936 33.9047V33.9112Z" fill="#1C1E1F"/>
<path d="M102.405 9.1787C104.458 6.17262 106.082 2.79817 108.911 0.410408C109.667 0.31174 110.878 -0.168445 110.917 0.0617807C108.339 4.26504 108.964 6.98827 103.543 9.32341L102.359 9.47471C102.373 9.37604 102.386 9.27737 102.399 9.1787H102.405Z" fill="#1C1E1F"/>
<path d="M102.412 8.58693C102.346 7.01482 102.412 5.43613 102.254 3.8706C104.484 1.03554 105.405 0.871095 108.615 0.410645C106.595 2.00249 103.07 6.29783 102.412 8.58693Z" fill="#1C1E1F"/>
<path d="M102.406 9.17891C102.406 9.14602 102.182 9.38282 102.413 8.5869C103.07 6.2978 106.596 2.00246 108.616 0.410614C108.833 0.377724 108.898 0.410614 108.912 0.410614C106.083 2.79838 104.458 6.17282 102.406 9.17891Z" fill="#1C1E1F"/>
<path d="M70.8696 14.7699H67.6531C67.2715 14.7699 66.9492 14.5594 66.7716 14.2568C66.7716 14.3884 66.7914 14.5199 66.7914 14.6581C66.7914 19.5257 63.6998 23.6632 59.3781 25.2484V25.4655C59.3781 25.7286 59.1676 25.9391 58.9045 25.9391H55.6879C55.6287 25.9391 55.5695 25.9457 55.5103 25.9457C55.4511 25.9457 55.3919 25.9391 55.3327 25.9391H44.7029C44.4398 25.9391 44.2293 25.7286 44.2293 25.4655V14.7567C44.2293 14.7567 44.2293 14.6975 44.2293 14.6647C44.2293 14.6318 44.2293 14.6054 44.2293 14.5726V5.35697C44.2293 4.79128 43.7688 4.3374 43.2097 4.3374H38C37.4343 4.3374 36.9805 4.79785 36.9805 5.35697V27.6954C36.9805 30.6028 38.8157 32.5564 41.881 32.5564H56.3589C56.5299 32.5564 56.6812 32.4644 56.7667 32.3196L59.3781 27.8138V39.2593C59.3781 39.5224 59.5886 39.7329 59.8517 39.7329H66.1599C66.423 39.7329 66.6335 39.5224 66.6335 39.2593V22.3739C66.6335 21.8082 67.0939 21.3543 67.6531 21.3543H70.8696C71.4353 21.3543 71.8892 20.8939 71.8892 20.3348V15.8026C71.8892 15.2369 71.4287 14.7831 70.8696 14.7831V14.7699Z" fill="#1C1E1F"/>
<path d="M66.7737 14.2503C66.6882 14.099 66.6355 13.9279 66.6355 13.7438V3.75199C66.6355 3.18629 66.1751 2.73242 65.616 2.73242H60.4063C59.8406 2.73242 59.3867 3.19287 59.3867 3.75199V25.2419C63.7084 23.6632 66.8 19.5257 66.8 14.6515C66.8 14.5134 66.7868 14.3818 66.7802 14.2503H66.7737Z" fill="#1C1E1F"/>
<path d="M55.5045 25.9392C55.5637 25.9392 55.6229 25.9326 55.6821 25.9326H55.3203C55.3795 25.9326 55.4387 25.9392 55.4979 25.9392H55.5045Z" fill="#1C1E1F"/>
<path d="M11.4784 19.4533V26.7679H6.85414V10.7048H10.518V5.03464C10.518 4.77153 10.3075 4.56104 10.0444 4.56104H0.473606C0.210492 4.56104 0 4.77153 0 5.03464V28.8399C0 31.3527 1.19717 32.9051 3.86778 32.9051H9.11034C9.28795 32.9051 9.45897 32.7998 9.5379 32.6419L11.4784 28.6426V28.8399C11.4784 31.3527 12.6755 32.9051 15.3462 32.9051H22.1214C22.2924 32.9051 22.4568 32.813 22.5358 32.6551L22.5752 32.5762C16.4315 31.2474 11.7875 25.9194 11.4784 19.4467V19.4533Z" fill="#1C1E1F"/>
<path d="M33.0088 3.75199C33.0088 3.18629 32.5483 2.73242 31.9892 2.73242H27.3321C26.7664 2.73242 26.3125 3.19287 26.3125 3.75199V4.66631C28.766 4.79129 31.042 5.53459 33.0088 6.7515V3.75199Z" fill="#1C1E1F"/>
<path d="M26.3125 39.246C26.3125 39.5091 26.523 39.7196 26.7861 39.7196H32.5417C32.8049 39.7196 33.0153 39.5091 33.0153 39.246V14.75C31.463 25.9324 28.766 32.747 26.3191 32.872V39.2525L26.3125 39.246Z" fill="#1C1E1F"/>
<path d="M24.923 26.7679H18.6542C18.3911 26.7679 18.1806 26.5574 18.1806 26.2943V11.7243C18.1806 11.1586 18.6411 10.7048 19.2002 10.7048H22.6207C23.1864 10.7048 23.6403 10.2443 23.6403 9.68519V5.58718C23.6403 5.2846 23.5087 5.02149 23.3048 4.83073C23.1206 4.66628 22.8838 4.56104 22.6207 4.56104H11.958C11.6949 4.56104 11.4844 4.77153 11.4844 5.03464V19.4533C11.7935 25.9194 16.4375 31.2474 22.5812 32.5827L25.3374 27.4652C25.5084 27.1494 25.2782 26.7679 24.923 26.7679Z" fill="#1C1E1F"/>
<path d="M26.3096 4.6665V14.1452C26.3096 14.7109 25.8491 15.1648 25.29 15.1648H22.1524C21.5867 15.1648 21.1328 15.6252 21.1328 16.1843V20.4008C21.1328 20.9665 21.5933 21.4203 22.1524 21.4203H25.29C25.8557 21.4203 26.3096 21.8808 26.3096 22.4399V32.8592C28.7631 32.7343 31.0391 31.991 33.0059 30.7741V6.75169C31.0391 5.53478 28.7566 4.79148 26.3096 4.6665Z" fill="#1C1E1F"/>
<path d="M104.12 39.5289V37.6016C104.12 38.4041 104.028 39.1868 103.863 39.9367C104.015 39.8578 104.12 39.7065 104.12 39.5223V39.5289Z" fill="#1C1E1F"/>
<path d="M103.656 26.5708H77.1338C76.8706 26.5708 76.6602 26.7813 76.6602 27.0444V36.3389C76.6602 38.4504 77.7784 40.0094 80.1267 40.0094H82.3237C82.1527 39.2398 82.054 38.4373 82.054 37.6085C82.054 31.5108 86.994 26.5708 93.0917 26.5708C99.1893 26.5708 104.129 31.5108 104.129 37.6085V27.0444C104.129 26.7813 103.919 26.5708 103.656 26.5708Z" fill="#1C1E1F"/>
<path d="M107.121 19.4334H94.6694C94.3865 19.4334 94.1629 19.2229 94.13 18.9467C94.13 18.9269 94.1169 18.9072 94.1169 18.8809V18.0258C94.1169 17.7232 94.3602 17.4732 94.6694 17.4732H102.984C103.55 17.4732 104.003 17.0128 104.003 16.4537V3.54789C104.003 2.98219 103.543 2.52832 102.984 2.52832H97.3005C96.998 2.52832 96.7612 2.7717 96.7546 3.06771C96.7546 3.07428 96.7546 3.08086 96.7546 3.08744C96.7546 3.12033 96.7546 3.15322 96.7546 3.19268V4.41617C96.7546 4.51484 96.7217 4.60035 96.6822 4.67928C96.498 6.61975 95.9718 8.46156 95.1693 10.1521H96.2086C96.5112 10.1521 96.7612 10.3954 96.7612 10.7046V11.5992C96.7612 11.9018 96.5178 12.1517 96.2086 12.1517H94.0445C92.2816 14.8158 89.7623 16.9338 86.7957 18.21V18.9006C86.7957 19.2032 86.5523 19.4532 86.2431 19.4532H81.9281C81.4084 19.5058 80.8756 19.5321 80.3428 19.5321C79.81 19.5321 79.2772 19.5058 78.7575 19.4532H74.3438C73.7781 19.4532 73.3242 19.9136 73.3242 20.4727V24.3997C73.3242 24.6628 73.5347 24.8733 73.7978 24.8733H107.134C107.398 24.8733 107.608 24.6628 107.608 24.3997V19.9268C107.608 19.6637 107.398 19.4532 107.134 19.4532L107.121 19.4334Z" fill="#1C1E1F"/>
<path d="M96.2018 4.96236H84.5853C84.2827 4.96236 84.0327 4.71898 84.0327 4.40982V3.07451C84.0327 2.77193 83.7894 2.52197 83.4802 2.52197H77.7969C77.2312 2.52197 76.7773 2.98242 76.7773 3.54154V13.803C76.7773 15.9145 77.8956 17.4669 80.2439 17.4669H86.2297C86.5323 17.4669 86.7823 17.7103 86.7823 18.0194V18.1839C89.7489 16.9143 92.2682 14.7963 94.0311 12.1257H84.5787C84.2761 12.1257 84.0261 11.8823 84.0261 11.5731V10.6785C84.0261 10.3759 84.2695 10.126 84.5787 10.126H95.1559C95.9584 8.44205 96.4846 6.60025 96.6688 4.6532C96.5767 4.82423 96.3991 4.94263 96.1952 4.94263L96.2018 4.96236Z" fill="#1C1E1F"/>
<path d="M80.3301 19.5125C80.8629 19.5125 81.3957 19.4862 81.9154 19.4336H78.7383C79.2579 19.4862 79.7907 19.5125 80.3235 19.5125H80.3301Z" fill="#1C1E1F"/>
<path d="M93.0884 26.5708C86.9908 26.5708 82.0508 31.5108 82.0508 37.6085C82.0508 38.4307 82.1495 39.2332 82.3205 40.0094H94.233C94.404 40.0094 94.5685 39.9173 94.6474 39.7594L96.7852 35.8193V40.0028H103.646C103.725 40.0028 103.797 39.9765 103.863 39.9436C104.027 39.1871 104.12 38.411 104.12 37.6085C104.12 31.5108 99.1795 26.5708 93.0819 26.5708H93.0884ZM96.7852 34.4182H83.9913V31.9844H96.7852V34.4182Z" fill="#1C1E1F"/>
</svg>
