<svg width="20" height="18" viewBox="0 0 20 18" fill="none" xmlns="http://www.w3.org/2000/svg">
<path d="M15.8333 14.25H4.16667V6H15.8333M13.3333 0.75V2.25H6.66667V0.75H5V2.25H4.16667C3.24167 2.25 2.5 2.9175 2.5 3.75V14.25C2.5 14.6478 2.67559 15.0294 2.98816 15.3107C3.30072 15.592 3.72464 15.75 4.16667 15.75H15.8333C16.2754 15.75 16.6993 15.592 17.0118 15.3107C17.3244 15.0294 17.5 14.6478 17.5 14.25V3.75C17.5 3.35218 17.3244 2.97064 17.0118 2.68934C16.6993 2.40804 16.2754 2.25 15.8333 2.25H15V0.75" fill="#1C1E1F"/>
</svg>
