<svg width="20" height="20" viewBox="0 0 20 20" fill="none" xmlns="http://www.w3.org/2000/svg">
<path fill-rule="evenodd" clip-rule="evenodd" d="M15 2.5C15.442 2.5 15.866 2.67559 16.1785 2.98816C16.4911 3.30072 16.6667 3.72464 16.6667 4.16667V12.5C16.6667 12.942 16.4911 13.366 16.1785 13.6785C15.866 13.9911 15.442 14.1667 15 14.1667H14.1667V7.5C14.1667 6.61595 13.8155 5.7681 13.1904 5.14298C12.5652 4.51786 11.7174 4.16667 10.8333 4.16667H8.33333C8.04084 4.16643 7.75344 4.24316 7.5 4.38917V4.16667C7.5 3.72464 7.6756 3.30072 7.98816 2.98816C8.30072 2.67559 8.72464 2.5 9.16667 2.5H15Z" fill="#1C1E1F"/>
<path fill-rule="evenodd" clip-rule="evenodd" d="M6.66536 5.87837V9.16671H3.4987C3.5609 9.03711 3.63961 8.91611 3.73286 8.80671L5.78286 6.41504C6.01278 6.14721 6.32179 5.9593 6.66536 5.87837ZM8.33203 5.83337V9.16671C8.33203 9.60874 8.15644 10.0327 7.84388 10.3452C7.53132 10.6578 7.10739 10.8334 6.66536 10.8334H3.33203V15.8334C3.33203 16.2754 3.50763 16.6993 3.82019 17.0119C4.13275 17.3244 4.55667 17.5 4.9987 17.5H10.832C11.2741 17.5 11.698 17.3244 12.0105 17.0119C12.3231 16.6993 12.4987 16.2754 12.4987 15.8334V7.50004C12.4987 7.05801 12.3231 6.63409 12.0105 6.32153C11.698 6.00897 11.2741 5.83337 10.832 5.83337H8.33203Z" fill="#1C1E1F"/>
</svg>
