<svg width="50" height="50" viewBox="0 0 50 50" fill="none" xmlns="http://www.w3.org/2000/svg">
<rect width="50" height="50" fill="#26282C"/>
<path d="M25.0013 4.1665C22.2654 4.1665 19.5563 4.70537 17.0287 5.75235C14.5011 6.79932 12.2045 8.33389 10.2699 10.2684C6.3629 14.1755 4.16797 19.4745 4.16797 24.9998C4.16797 34.2082 10.1471 42.0207 18.418 44.7915C19.4596 44.9582 19.793 44.3123 19.793 43.7498V40.229C14.0221 41.479 12.793 37.4373 12.793 37.4373C11.8346 35.0207 10.4805 34.3748 10.4805 34.3748C8.58464 33.0832 10.6263 33.1248 10.6263 33.1248C12.7096 33.2707 13.8138 35.2707 13.8138 35.2707C15.6263 38.4373 18.6888 37.4998 19.8763 36.9998C20.0638 35.6457 20.6055 34.729 21.1888 34.2082C16.5638 33.6873 11.7096 31.8957 11.7096 23.9582C11.7096 21.6457 12.5013 19.7915 13.8555 18.3123C13.6471 17.7915 12.918 15.6248 14.0638 12.8123C14.0638 12.8123 15.8138 12.2498 19.793 14.9373C21.4388 14.479 23.2305 14.2498 25.0013 14.2498C26.7721 14.2498 28.5638 14.479 30.2096 14.9373C34.1888 12.2498 35.9388 12.8123 35.9388 12.8123C37.0846 15.6248 36.3555 17.7915 36.1471 18.3123C37.5013 19.7915 38.293 21.6457 38.293 23.9582C38.293 31.9165 33.418 33.6665 28.7721 34.1873C29.5221 34.8332 30.2096 36.104 30.2096 38.0415V43.7498C30.2096 44.3123 30.543 44.979 31.6055 44.7915C39.8763 41.9998 45.8346 34.2082 45.8346 24.9998C45.8346 22.264 45.2958 19.5549 44.2488 17.0273C43.2018 14.4996 41.6672 12.203 39.7327 10.2684C37.7981 8.33389 35.5015 6.79932 32.9739 5.75235C30.4463 4.70537 27.7372 4.1665 25.0013 4.1665Z" fill="#CACDD3"/>
</svg>
