<svg width="20" height="20" viewBox="0 0 20 20" fill="none" xmlns="http://www.w3.org/2000/svg">
<path fill-rule="evenodd" clip-rule="evenodd" d="M12.4381 7L12.9075 4.18333C12.9523 3.91468 12.938 3.63949 12.8657 3.37692C12.7933 3.11434 12.6646 2.87068 12.4885 2.66288C12.3125 2.45508 12.0932 2.28814 11.8461 2.17366C11.599 2.05919 11.3307 1.99992 11.0583 2H10.88C10.2969 2.00007 9.72291 2.1441 9.20887 2.41929C8.69484 2.69448 8.25669 3.09232 7.93333 3.5775L5.83667 6.72167C5.7796 6.80728 5.70228 6.87748 5.61156 6.92603C5.52085 6.97458 5.41956 6.99999 5.31667 7H2.04167C1.46667 7 1 7.46667 1 8.04167V14.7083C1 15.4266 1.28534 16.1155 1.79325 16.6234C2.30116 17.1313 2.99004 17.4167 3.70833 17.4167H13.175C13.8012 17.4167 14.408 17.1997 14.8922 16.8027C15.3764 16.4057 15.7081 15.8532 15.8308 15.2392L16.8308 10.2392C16.9094 9.84633 16.8997 9.44096 16.8027 9.05228C16.7057 8.66361 16.5236 8.3013 16.2697 7.99147C16.0157 7.68164 15.6962 7.432 15.3341 7.26056C14.972 7.08911 14.5764 7.00012 14.1758 7L14.1754 8H14.175V7H12.4381Z" fill="#74777D"/>
</svg>
