<svg width="17" height="16" viewBox="0 0 17 16" fill="none" xmlns="http://www.w3.org/2000/svg">
<path d="M10.5013 6.33332L9.4738 6.16166C9.44886 6.31091 9.45674 6.46381 9.4969 6.60971C9.53705 6.75562 9.60851 6.89102 9.7063 7.0065C9.80409 7.12198 9.92588 7.21477 10.0632 7.2784C10.2005 7.34204 10.35 7.375 10.5013 7.37499V6.33332ZM1.33464 6.33332V5.29166C0.759635 5.29166 0.292969 5.75832 0.292969 6.33332H1.33464ZM3.0013 15.7083H12.468V13.625H3.0013V15.7083ZM13.468 5.29166H10.5013V7.37499H13.468V5.29166ZM11.5288 6.50499L12.2005 2.47499L10.1455 2.13249L9.4738 6.16249L11.5288 6.50499ZM10.3513 0.291657H10.173V2.37499H10.3513V0.291657ZM7.2263 1.86916L5.12964 5.01332L6.86297 6.16916L8.95963 3.02416L7.2263 1.86916ZM4.60964 5.29166H1.33464V7.37499H4.60964V5.29166ZM0.292969 6.33332V13H2.3763V6.33332H0.292969ZM15.1238 13.5308L16.1238 8.53082L14.0813 8.12249L13.0813 13.1225L15.1238 13.5308ZM5.12964 5.01332C5.07257 5.09893 4.99524 5.16913 4.90453 5.21769C4.81382 5.26624 4.71252 5.29165 4.60964 5.29166V7.37499C5.05546 7.37499 5.4944 7.26493 5.88748 7.05458C6.28056 6.84422 6.61564 6.54009 6.86297 6.16916L5.12964 5.01332ZM12.2005 2.47499C12.2453 2.20634 12.231 1.93115 12.1586 1.66857C12.0863 1.406 11.9576 1.16233 11.7815 0.954536C11.6054 0.746739 11.3862 0.579795 11.1391 0.465318C10.8919 0.350842 10.6237 0.29158 10.3513 0.291657V2.37499C10.3211 2.37492 10.2904 2.36827 10.263 2.35552C10.2357 2.34277 10.2114 2.32422 10.1919 2.30115C10.1724 2.27809 10.1581 2.25105 10.1501 2.22193C10.1421 2.19281 10.1405 2.16229 10.1455 2.13249L12.2005 2.47499ZM13.468 7.37499C13.5605 7.37492 13.6518 7.39539 13.7355 7.43491C13.8191 7.47444 13.8929 7.53203 13.9516 7.60354C14.0103 7.67505 14.0523 7.7587 14.0748 7.84844C14.0972 7.93818 14.0994 8.03178 14.0813 8.12249L16.1238 8.53082C16.2023 8.13798 16.1927 7.73262 16.0957 7.34394C15.9986 6.95526 15.8166 6.59295 15.5626 6.28312C15.3087 5.97329 14.9891 5.72366 14.6271 5.55221C14.265 5.38076 13.8694 5.29178 13.4688 5.29166L13.468 7.37499ZM12.468 15.7083C13.0941 15.7083 13.7009 15.4914 14.1852 15.0944C14.6694 14.6974 15.0011 14.1448 15.1238 13.5308L13.0813 13.1225C13.053 13.2643 12.9764 13.3918 12.8645 13.4835C12.7527 13.5751 12.6125 13.6251 12.468 13.625V15.7083ZM10.173 0.291657C9.58991 0.291729 9.01588 0.435753 8.50184 0.710942C7.98781 0.986132 7.54966 1.38398 7.2263 1.86916L8.95963 3.02416C9.09283 2.82445 9.27326 2.66071 9.48492 2.54746C9.69658 2.43422 9.93292 2.37498 10.173 2.37499V0.291657ZM3.0013 13.625C2.83554 13.625 2.67657 13.5591 2.55936 13.4419C2.44215 13.3247 2.3763 13.1658 2.3763 13H0.292969C0.292969 13.7183 0.57831 14.4072 1.08622 14.9151C1.59413 15.423 2.28301 15.7083 3.0013 15.7083V13.625Z" fill="#74777D"/>
<path d="M4.66797 6.33331V14.6666" stroke="#74777D" stroke-width="3.125"/>
</svg>
