<svg width="20" height="20" viewBox="0 0 20 20" fill="none" xmlns="http://www.w3.org/2000/svg">
<path fill-rule="evenodd" clip-rule="evenodd" d="M14.757 17.2558C14.6007 17.4121 14.3888 17.4998 14.1678 17.4998C13.9468 17.4998 13.7349 17.4121 13.5786 17.2558L10.2453 13.9225C10.1288 13.806 10.0494 13.6575 10.0173 13.4959C9.98516 13.3342 10.0017 13.1667 10.0647 13.0145C10.1278 12.8622 10.2346 12.7321 10.3716 12.6405C10.5086 12.5489 10.6697 12.5 10.8345 12.5H13.3345V3.33333C13.3345 3.11232 13.4223 2.90036 13.5785 2.74408C13.7348 2.5878 13.9468 2.5 14.1678 2.5C14.3888 2.5 14.6008 2.5878 14.757 2.74408C14.9133 2.90036 15.0011 3.11232 15.0011 3.33333V12.5H17.5011C17.6659 12.5 17.827 12.5489 17.964 12.6405C18.101 12.7321 18.2078 12.8622 18.2709 13.0145C18.3339 13.1667 18.3504 13.3342 18.3183 13.4959C18.2861 13.6575 18.2068 13.806 18.0903 13.9225L14.757 17.2558ZM6.42362 2.74417C6.26735 2.58794 6.05543 2.50018 5.83446 2.50018C5.61349 2.50018 5.40156 2.58794 5.24529 2.74417L1.91196 6.0775C1.79545 6.19404 1.71611 6.34251 1.68397 6.50414C1.65183 6.66577 1.66833 6.8333 1.73139 6.98555C1.79445 7.13779 1.90123 7.26793 2.03824 7.3595C2.17525 7.45107 2.33633 7.49996 2.50112 7.5H5.00112V16.6667C5.00112 16.8877 5.08892 17.0996 5.2452 17.2559C5.40148 17.4122 5.61344 17.5 5.83446 17.5C6.05547 17.5 6.26743 17.4122 6.42371 17.2559C6.57999 17.0996 6.66779 16.8877 6.66779 16.6667V7.5H9.16779C9.33258 7.49996 9.49366 7.45107 9.63067 7.3595C9.76768 7.26793 9.87446 7.13779 9.93752 6.98555C10.0006 6.8333 10.0171 6.66577 9.98494 6.50414C9.9528 6.34251 9.87347 6.19404 9.75696 6.0775L6.42362 2.74417Z" fill="#1C1E1F"/>
</svg>
