<svg width="12" height="11" viewBox="0 0 12 11" fill="none" xmlns="http://www.w3.org/2000/svg">
<path d="M5.52289 0.463411C5.67257 0.00275573 6.32427 0.00275648 6.47395 0.463412L7.45776 3.49128C7.5247 3.69729 7.71668 3.83677 7.93329 3.83677H11.117C11.6013 3.83677 11.8027 4.45657 11.4109 4.74128L8.83521 6.6126C8.65997 6.73992 8.58664 6.9656 8.65357 7.17162L9.63739 10.1995C9.78706 10.6601 9.25982 11.0432 8.86797 10.7585L6.29231 8.88717C6.11707 8.75985 5.87977 8.75985 5.70453 8.88717L3.12887 10.7585C2.73701 11.0432 2.20977 10.6601 2.35945 10.1995L3.34326 7.17162C3.4102 6.9656 3.33687 6.73992 3.16163 6.6126L0.585972 4.74128C0.194115 4.45657 0.395503 3.83677 0.879865 3.83677H4.06355C4.28016 3.83677 4.47214 3.69729 4.53908 3.49128L5.52289 0.463411Z" fill="#FFAD0A"/>
<path d="M5.99842 8.79163V0.11805C6.19877 0.11805 6.39912 0.233187 6.47395 0.463412L7.45776 3.49128C7.5247 3.69729 7.71668 3.83677 7.93329 3.83677H11.117C11.6013 3.83677 11.8027 4.45657 11.4109 4.74128L8.83521 6.6126C8.65997 6.73992 8.58664 6.9656 8.65357 7.17162L9.63739 10.1995C9.78706 10.6601 9.25982 11.0432 8.86797 10.7585L6.29231 8.88717C6.2047 8.8237 6.10157 8.79163 5.99842 8.79163Z" fill="#CACDD3"/>
</svg>
